<svg width="1724" height="605" viewBox="0 0 1724 605" fill="none" xmlns="http://www.w3.org/2000/svg">
<path d="M16.988 3.92249C22.581 1.6725 36.7966 0.406873 43.2053 0.0553112C67.3252 -1.26767 85.5025 21.5009 94.9407 29.9381C99.5438 34.053 105.428 36.9693 110.671 36.9693L1128.95 36.9693C1360.71 36.9693 1407.2 99.5473 1438.31 113.61C1469.43 127.672 1588.63 202.555 1671.47 249.664C1754.32 296.774 1702.58 314.352 1683.01 323.844C1629.53 349.859 1609.95 322.438 1584.43 293.961C1496.69 192.711 1368.4 124.508 1335.54 113.61C1302.68 102.711 1240.46 98.1411 1216.69 99.5473C1192.92 100.954 137.587 119.938 123.605 120.641C109.622 121.344 109.972 126.969 110.671 132.243C127.101 272.164 132.694 311.188 118.361 335.094C108.877 350.914 98.4363 359 88.6486 359C59.9758 359 50.1965 330.172 43.2053 307.32C36.214 284.469 5.4524 86.8911 0.908072 48.9224C-3.63626 10.9537 9.99673 6.73499 16.988 3.92249Z" fill="#505050"/>
<line x1="1448.08" y1="599.343" x2="1717.79" y2="303.946" stroke="#BDBDBD" stroke-width="15"/>
<line x1="1144.03" y1="350.326" x2="1339.51" y2="136.227" stroke="#BDBDBD" stroke-width="15"/>
<path d="M1279 210L1305.19 292.547L1363.58 228.592L1279 210ZM1564.12 470.319L1537.93 387.772L1479.53 451.727L1564.12 470.319ZM1323.79 261.051L1509.21 430.345L1519.33 419.268L1333.91 249.974L1323.79 261.051Z" fill="#BDBDBD"/>
</svg>
