<svg width="1516" height="1469" viewBox="0 0 1516 1469" fill="none" xmlns="http://www.w3.org/2000/svg">
<rect width="1516" height="1459" transform="translate(0 9)" fill="white"/>
<path fill-rule="evenodd" clip-rule="evenodd" d="M59.7297 734.036L59.5 566.08C60.43 466.482 79.032 237.221 145.999 116.962C159.02 92.8353 163.67 75.2046 200.874 67.7812C238.078 60.3577 510.595 14.8892 652.899 9.32157C795.204 3.754 963.55 -7.38117 1031.45 9.32159C1099.34 26.0243 1307.68 109.539 1444.41 219.963C1461.15 229.242 1463.94 245.017 1427.67 245.945C1391.39 246.873 1350.47 245.017 1322.57 219.963C1294.66 194.909 1192.48 104.267 1090.04 69.6381C1024.09 47.3408 1029.21 43.2419 914.256 39.9443C799.305 36.6467 733.632 41.0586 621.276 52.9353C480.832 67.7812 284.583 100.258 242.729 116.962C200.874 133.665 187.853 143.872 187.853 156.864C186.923 160.885 192.238 174.494 207.385 191.197C225.057 210.683 231.567 230.17 237.148 266.359C242.729 319.87 249.239 441.367 230.637 499.27C218.546 541.955 200.874 549.376 200.874 566.08C200.874 582.784 209.245 591.135 222.266 600.414L222.755 600.762C236.379 610.46 280.071 641.559 215.756 667.225C150.649 693.207 154.37 687.64 141.348 697.847C128.327 708.054 122.747 721.044 122.747 734.037C122.747 747.028 128.557 760.945 141.578 771.153C154.599 781.36 150.879 775.792 215.986 801.774C280.301 827.441 236.609 858.54 222.985 868.237L222.496 868.585C209.475 877.865 201.104 886.216 201.104 902.92C201.104 919.624 218.776 927.045 230.867 969.73C249.469 1027.63 242.958 1149.13 237.378 1202.64C231.797 1238.83 225.287 1258.32 207.615 1277.8C192.467 1294.51 187.153 1308.12 188.083 1312.14C188.083 1325.13 201.104 1335.33 242.958 1352.04C284.813 1368.74 472.289 1401.44 621.506 1416.06C735.488 1427.23 801.518 1429.06 914.485 1429.06C984.107 1429.06 1024.32 1421.66 1090.27 1399.36C1192.71 1364.73 1294.89 1274.09 1322.8 1249.04C1350.7 1223.98 1391.62 1222.13 1427.9 1223.06C1464.17 1223.98 1461.38 1239.76 1444.64 1249.04C1307.91 1359.46 1099.57 1442.98 1031.68 1459.68C963.78 1476.38 795.433 1465.25 653.129 1459.68C510.825 1454.11 238.308 1408.64 201.104 1401.22C163.9 1393.8 159.25 1376.16 146.228 1352.04C79.2617 1231.78 60.6599 1002.52 59.7297 902.92L59.7297 734.036ZM108.795 603.198C108.795 580.186 111.895 465.555 113.446 411.117C117.163 270.071 157.16 201.404 170.181 202.332C183.203 203.26 195.294 222.747 204.595 268.215C213.896 313.684 209.245 398.126 204.595 468.648C199.968 538.808 164.964 583.253 144.456 609.291L144.139 609.694C123.677 635.676 108.795 631.964 108.795 603.198ZM109.025 865.8C109.025 888.812 112.125 1003.44 113.675 1057.88C117.393 1198.93 157.39 1267.59 170.411 1266.67C183.432 1265.74 195.523 1246.25 204.824 1200.78C214.125 1155.31 209.475 1070.87 204.824 1000.35C200.198 930.19 165.194 885.746 144.686 859.707L144.368 859.304C123.906 833.322 109.025 837.034 109.025 865.8Z" fill="#505050"/>
<path d="M132.5 88.5C65.5 218 21 350.5 21 737C21 1123.5 84 1307 132.5 1399.5" stroke="#BDBDBD" stroke-width="15"/>
<path d="M43.5913 1108.05L124.604 1138.66L110.605 1053.19L43.5913 1108.05ZM289.066 483.299L283.581 488.414L289.066 483.299ZM43.168 365.922L110.245 420.701L124.146 335.221L43.168 365.922ZM112.071 1104.4C181.676 1086.39 245.23 1048.83 294.846 995.499L283.864 985.282C236.209 1036.5 175.167 1072.58 108.313 1089.88L112.071 1104.4ZM294.846 995.499C360.231 925.221 396.555 832.775 396.5 736.784L381.5 736.792C381.553 828.989 346.665 917.781 283.864 985.282L294.846 995.499ZM396.5 736.784C396.445 640.793 360.016 548.389 294.551 478.185L283.581 488.414C346.458 555.844 381.448 644.595 381.5 736.792L396.5 736.784ZM294.551 478.185C244.874 424.911 181.277 387.425 111.651 369.492L107.91 384.018C174.784 401.242 235.867 437.247 283.581 488.414L294.551 478.185Z" fill="#BDBDBD"/>
</svg>
