<svg width="1999" height="782" viewBox="0 0 1999 782" fill="none" xmlns="http://www.w3.org/2000/svg">
<path d="M253.988 3.92249C259.581 1.6725 273.797 0.406873 280.205 0.0553112C304.325 -1.26767 322.502 21.5009 331.941 29.9381C336.544 34.053 342.428 36.9693 347.671 36.9693L1365.95 36.9693C1597.71 36.9693 1644.2 99.5473 1675.31 113.61C1706.43 127.672 1825.63 202.555 1908.47 249.664C1991.32 296.774 1939.58 314.352 1920.01 323.844C1866.53 349.859 1846.95 322.438 1821.43 293.961C1733.69 192.711 1605.4 124.508 1572.54 113.61C1539.68 102.711 1477.46 98.1411 1453.69 99.5473C1429.92 100.954 374.587 119.938 360.605 120.641C346.622 121.344 346.972 126.969 347.671 132.243C364.101 272.164 369.694 311.188 355.361 335.094C345.877 350.914 335.436 359 325.649 359C296.976 359 287.197 330.172 280.205 307.32C273.214 284.469 242.452 86.8911 237.908 48.9224C233.364 10.9537 246.997 6.73499 253.988 3.92249Z" fill="#505050"/>
<path d="M314 711C278.643 716.775 242.86 719.785 207 720" stroke="#BDBDBD" stroke-width="15"/>
<path d="M205 719.995L132.067 673.296L128.091 759.807L205 719.995ZM0.791589 697.167C45.1396 710.832 90.736 719.932 136.854 724.362L138.288 709.43C93.1796 705.098 48.5826 696.197 5.20841 682.833L0.791589 697.167Z" fill="#BDBDBD"/>
<path d="M317.541 708.549L401.127 731.206L378.955 647.489L317.541 708.549ZM385.069 698.413C429.069 684.344 471.567 665.779 511.878 642.975L504.493 629.919C465.077 652.216 423.523 670.37 380.5 684.126L385.069 698.413Z" fill="#BDBDBD"/>
<path d="M202 65C202 60.8578 205.358 57.5 209.5 57.5C213.642 57.5 217 60.8578 217 65L202 65ZM202 782L202 65L217 65L217 782L202 782Z" fill="#BDBDBD"/>
<path d="M202 65C201.347 60.9096 204.134 57.0644 208.224 56.4115C212.314 55.7586 216.16 58.5452 216.812 62.6356L202 65ZM315.018 773.037L202 65L216.812 62.6356L329.83 770.672L315.018 773.037Z" fill="#BDBDBD"/>
</svg>
