<svg width="1637" height="737" viewBox="0 0 1637 737" fill="none" xmlns="http://www.w3.org/2000/svg">
<rect width="1637" height="737" fill="white"/>
<path fill-rule="evenodd" clip-rule="evenodd" d="M854.137 149.563C897.064 152.641 921.424 152.797 964.339 149.563C1043.56 143.593 1052.92 116.057 1163.12 106.284C1273.32 96.5118 1490.94 86.7392 1610.21 106.284C1633.92 116.057 1656.24 150.261 1610.21 188.653C1586.49 208.431 1562.78 231.234 1558.59 261.948C1551.15 316.628 1525.11 438.692 1480.47 489.509C1424.68 553.031 1380.73 582.349 1271.93 580.952C1163.12 579.556 1074.54 555.125 1011.77 462.984C961.549 389.27 957.364 308.716 957.364 296.85C957.364 284.983 945.786 256.363 907.843 256.363C860.414 256.363 854.137 288.473 854.137 296.85C854.137 305.226 840.74 407.603 801.129 462.984C738.219 550.937 695.809 580.952 550.733 580.952C405.657 580.952 355 534.5 325.447 489.509C295.348 443.686 266.161 305.924 255.002 261.948C243.842 217.971 212.455 202.614 193.623 188.653C174.791 174.693 162.237 116.755 203.388 106.284C244.539 95.8136 533.994 89.5313 649.078 106.284C764.162 123.038 772.505 143.71 854.137 149.563ZM1142.71 142.467C1011.02 157.544 999.725 233.212 999.725 268.812C999.725 441.926 1088.3 505.448 1132.25 526.389C1176.19 547.331 1231.99 552.915 1320.57 547.331C1409.15 541.746 1454.48 476.13 1487.96 406.326C1514.74 350.483 1515.86 256.945 1513.07 217.157C1511.68 199.008 1500.38 158.661 1466.34 142.467C1423.79 122.223 1307.31 123.62 1142.71 142.467ZM668.766 141.773C800.451 156.851 811.75 235.306 811.75 268.119C811.75 441.233 723.17 504.755 679.229 525.696C635.287 546.637 579.489 552.222 490.909 546.637C402.329 541.053 350 481.5 323.513 405.633C303.099 347.16 295.614 256.252 298.404 216.464C299.799 198.315 311.098 157.968 345.135 141.773C387.682 121.53 504.161 122.926 668.766 141.773ZM236.681 175.973C248.622 175.973 258.303 166.285 258.303 154.333C258.303 142.382 248.622 132.694 236.681 132.694C224.739 132.694 215.059 142.382 215.059 154.333C215.059 166.285 224.739 175.973 236.681 175.973ZM1574.45 175.973C1586.39 175.973 1596.07 166.285 1596.07 154.333C1596.07 142.382 1586.39 132.694 1574.45 132.694C1562.51 132.694 1552.83 142.382 1552.83 154.333C1552.83 166.285 1562.51 175.973 1574.45 175.973Z" fill="#505050"/>
<line x1="22" y1="88.5" x2="570" y2="88.5" stroke="#BDBDBD" stroke-width="15"/>
<line y1="-7.5" x2="548" y2="-7.5" transform="matrix(1 0 0 -1 22 581)" stroke="#BDBDBD" stroke-width="15"/>
<path d="M88 96L44.6987 171L131.301 171L88 96ZM88 581L131.301 506L44.6987 506L88 581ZM80.5 163.5L80.5 513.5L95.5 513.5L95.5 163.5L80.5 163.5Z" fill="#BDBDBD"/>
</svg>
