<svg width="1818" height="806" viewBox="0 0 1818 806" fill="none" xmlns="http://www.w3.org/2000/svg">
<rect width="1818" height="737" transform="translate(0 69)" fill="white"/>
<path fill-rule="evenodd" clip-rule="evenodd" d="M1035.14 218.563C1078.06 221.641 1102.42 221.797 1145.34 218.563C1224.56 212.593 1233.92 185.057 1344.12 175.284C1454.32 165.512 1671.94 155.739 1791.21 175.284C1814.92 185.057 1837.24 219.261 1791.21 257.653C1767.49 277.431 1743.78 300.234 1739.59 330.948C1732.15 385.628 1706.11 507.692 1661.47 558.509C1605.68 622.031 1561.73 651.349 1452.93 649.952C1344.12 648.556 1255.54 624.125 1192.77 531.984C1142.55 458.27 1138.36 377.716 1138.36 365.85C1138.36 353.983 1126.79 325.363 1088.84 325.363C1041.41 325.363 1035.14 357.473 1035.14 365.85C1035.14 374.226 1021.74 476.603 982.129 531.984C919.219 619.937 876.809 649.952 731.733 649.952C586.657 649.952 536 603.5 506.447 558.509C476.348 512.686 447.161 374.924 436.002 330.948C424.842 286.971 393.455 271.614 374.623 257.653C355.791 243.693 343.237 185.755 384.388 175.284C425.539 164.814 714.994 158.531 830.078 175.284C945.162 192.038 953.505 212.71 1035.14 218.563ZM1323.71 211.467C1192.02 226.544 1180.72 302.212 1180.72 337.812C1180.72 510.926 1269.3 574.448 1313.25 595.389C1357.19 616.331 1412.99 621.915 1501.57 616.331C1590.15 610.746 1635.48 545.13 1668.96 475.326C1695.74 419.483 1696.86 325.945 1694.07 286.157C1692.68 268.008 1681.38 227.661 1647.34 211.467C1604.79 191.223 1488.31 192.62 1323.71 211.467ZM849.766 210.773C981.451 225.851 992.75 304.306 992.75 337.119C992.75 510.233 904.17 573.755 860.229 594.696C816.287 615.637 760.489 621.222 671.909 615.637C583.329 610.053 531 550.5 504.513 474.633C484.099 416.16 476.614 325.252 479.404 285.464C480.799 267.315 492.098 226.968 526.135 210.773C568.682 190.53 685.161 191.926 849.766 210.773ZM417.681 244.973C429.622 244.973 439.303 235.285 439.303 223.333C439.303 211.382 429.622 201.694 417.681 201.694C405.739 201.694 396.059 211.382 396.059 223.333C396.059 235.285 405.739 244.973 417.681 244.973ZM1755.45 244.973C1767.39 244.973 1777.07 235.285 1777.07 223.333C1777.07 211.382 1767.39 201.694 1755.45 201.694C1743.51 201.694 1733.83 211.382 1733.83 223.333C1733.83 235.285 1743.51 244.973 1755.45 244.973Z" fill="#505050"/>
<line x1="203" y1="157.5" x2="938" y2="157.5" stroke="#BDBDBD" stroke-width="15"/>
<line x1="203" y1="202.5" x2="938" y2="202.5" stroke="#BDBDBD" stroke-width="15"/>
<path d="M254 210L210.699 285L297.301 285L254 210ZM246.5 277.5L246.5 360L261.5 360L261.5 277.5L246.5 277.5Z" fill="#BDBDBD"/>
<path d="M254 150L297.301 75L210.699 75L254 150ZM246.5 9.22037e-07L246.5 82.5L261.5 82.5L261.5 -9.22037e-07L246.5 9.22037e-07Z" fill="#BDBDBD"/>
<path d="M246.5 165L246.5 195L261.5 195L261.5 165L246.5 165Z" fill="#BDBDBD"/>
</svg>
