<svg width="1483" height="737" viewBox="0 0 1483 737" fill="none" xmlns="http://www.w3.org/2000/svg">
<rect width="1468" height="737" fill="white"/>
<path fill-rule="evenodd" clip-rule="evenodd" d="M685.137 149.563C728.064 152.641 752.424 152.797 795.339 149.563C874.56 143.593 883.919 116.057 994.121 106.284C1104.32 96.5118 1321.94 86.7392 1441.21 106.284C1464.92 116.057 1487.24 150.261 1441.21 188.653C1417.49 208.431 1393.78 231.234 1389.59 261.948C1382.15 316.628 1356.11 438.692 1311.47 489.509C1255.68 553.031 1211.73 582.349 1102.93 580.952C994.121 579.556 905.541 555.125 842.768 462.984C792.549 389.27 788.364 308.716 788.364 296.85C788.364 284.983 776.786 256.363 738.843 256.363C691.414 256.363 685.137 288.473 685.137 296.85C685.137 305.226 671.74 407.603 632.129 462.984C569.219 550.937 526.809 580.952 381.733 580.952C236.657 580.952 186 534.5 156.447 489.509C126.348 443.686 97.1613 305.924 86.0016 261.948C74.842 217.971 43.4553 202.614 24.6234 188.653C5.79139 174.693 -6.76297 116.755 34.3881 106.284C75.5392 95.8136 364.994 89.5313 480.078 106.284C595.162 123.038 603.505 143.71 685.137 149.563ZM973.708 142.467C842.024 157.544 830.725 233.212 830.725 268.812C830.725 441.926 919.305 505.448 963.246 526.389C1007.19 547.331 1062.99 552.915 1151.57 547.331C1240.15 541.746 1285.48 476.13 1318.96 406.326C1345.74 350.483 1346.86 256.945 1344.07 217.157C1342.68 199.008 1331.38 158.661 1297.34 142.467C1254.79 122.223 1138.31 123.62 973.708 142.467ZM499.766 141.773C631.451 156.851 642.75 235.306 642.75 268.119C642.75 441.233 554.17 504.755 510.229 525.696C466.287 546.637 410.489 552.222 321.909 546.637C233.329 541.053 181 481.5 154.513 405.633C134.099 347.16 126.614 256.252 129.404 216.464C130.799 198.315 142.098 157.968 176.135 141.773C218.682 121.53 335.161 122.926 499.766 141.773ZM67.6808 175.973C79.6223 175.973 89.3027 166.285 89.3027 154.333C89.3027 142.382 79.6223 132.694 67.6808 132.694C55.7394 132.694 46.0589 142.382 46.0589 154.333C46.0589 166.285 55.7394 175.973 67.6808 175.973ZM1405.45 175.973C1417.39 175.973 1427.07 166.285 1427.07 154.333C1427.07 142.382 1417.39 132.694 1405.45 132.694C1393.51 132.694 1383.83 142.382 1383.83 154.333C1383.83 166.285 1393.51 175.973 1405.45 175.973Z" fill="#505050"/>
<line x1="10.5" y1="95" x2="10.5" y2="737" stroke="#BDBDBD" stroke-width="15"/>
<line x1="1475.5" y1="95" x2="1475.5" y2="737" stroke="#BDBDBD" stroke-width="15"/>
<path d="M12 670L87 713.301L87 626.699L12 670ZM1473 670L1398 626.699L1398 713.301L1473 670ZM79.5 677.5L1405.5 677.5L1405.5 662.5L79.5 662.5L79.5 677.5Z" fill="#BDBDBD"/>
</svg>
