<svg width="1749" height="678" viewBox="0 0 1749 678" fill="none" xmlns="http://www.w3.org/2000/svg">
<rect width="1749" height="678" fill="white"/>
<path fill-rule="evenodd" clip-rule="evenodd" d="M765.137 149.563C808.064 152.641 832.424 152.797 875.339 149.563C954.56 143.593 963.919 116.057 1074.12 106.284C1184.32 96.5118 1401.94 86.7392 1521.21 106.284C1544.92 116.057 1567.24 150.261 1521.21 188.653C1497.49 208.431 1473.78 231.234 1469.59 261.948C1462.15 316.628 1436.11 438.692 1391.47 489.509C1335.68 553.031 1291.73 582.349 1182.93 580.952C1074.12 579.556 985.541 555.125 922.768 462.984C872.549 389.27 868.364 308.716 868.364 296.85C868.364 284.983 856.786 256.363 818.843 256.363C771.414 256.363 765.137 288.473 765.137 296.85C765.137 305.226 751.74 407.603 712.129 462.984C649.219 550.937 606.809 580.952 461.733 580.952C316.657 580.952 266 534.5 236.447 489.509C206.348 443.686 177.161 305.924 166.002 261.948C154.842 217.971 123.455 202.614 104.623 188.653C85.7914 174.693 73.237 116.755 114.388 106.284C155.539 95.8136 444.994 89.5313 560.078 106.284C675.162 123.038 683.505 143.71 765.137 149.563ZM1053.71 142.467C922.024 157.544 910.725 233.212 910.725 268.812C910.725 441.926 999.305 505.448 1043.25 526.389C1087.19 547.331 1142.99 552.915 1231.57 547.331C1320.15 541.746 1365.48 476.13 1398.96 406.326C1425.74 350.483 1426.86 256.945 1424.07 217.157C1422.68 199.008 1411.38 158.661 1377.34 142.467C1334.79 122.223 1218.31 123.62 1053.71 142.467ZM579.766 141.773C711.451 156.851 722.75 235.306 722.75 268.119C722.75 441.233 634.17 504.755 590.229 525.696C546.287 546.637 490.489 552.222 401.909 546.637C313.329 541.053 261 481.5 234.513 405.633C214.099 347.16 206.614 256.252 209.404 216.464C210.799 198.315 222.098 157.968 256.135 141.773C298.682 121.53 415.161 122.926 579.766 141.773ZM147.681 175.973C159.622 175.973 169.303 166.285 169.303 154.333C169.303 142.382 159.622 132.694 147.681 132.694C135.739 132.694 126.059 142.382 126.059 154.333C126.059 166.285 135.739 175.973 147.681 175.973ZM1485.45 175.973C1497.39 175.973 1507.07 166.285 1507.07 154.333C1507.07 142.382 1497.39 132.694 1485.45 132.694C1473.51 132.694 1463.83 142.382 1463.83 154.333C1463.83 166.285 1473.51 175.973 1485.45 175.973Z" fill="#505050"/>
<line x1="1641" y1="135.5" x2="1223" y2="135.5" stroke="#BDBDBD" stroke-width="15"/>
<line x1="1641" y1="548.5" x2="1223" y2="548.5" stroke="#BDBDBD" stroke-width="15"/>
<path d="M1594 141L1550.7 216L1637.3 216L1594 141ZM1594 541L1637.3 466L1550.7 466L1594 541ZM1586.5 208.5L1586.5 473.5L1601.5 473.5L1601.5 208.5L1586.5 208.5Z" fill="#BDBDBD"/>
</svg>
