<svg width="1707" height="678" viewBox="0 0 1707 678" fill="none" xmlns="http://www.w3.org/2000/svg">
<rect width="1707" height="678" fill="white"/>
<path fill-rule="evenodd" clip-rule="evenodd" d="M883.137 149.563C926.064 152.641 950.424 152.797 993.339 149.563C1072.56 143.593 1081.92 116.057 1192.12 106.284C1302.32 96.5118 1519.94 86.7392 1639.21 106.284C1662.92 116.057 1685.24 150.261 1639.21 188.653C1615.49 208.431 1591.78 231.234 1587.59 261.948C1580.15 316.628 1554.11 438.692 1509.47 489.509C1453.68 553.031 1409.73 582.349 1300.93 580.952C1192.12 579.556 1103.54 555.125 1040.77 462.984C990.549 389.27 986.364 308.716 986.364 296.85C986.364 284.983 974.786 256.363 936.843 256.363C889.414 256.363 883.137 288.473 883.137 296.85C883.137 305.226 869.74 407.603 830.129 462.984C767.219 550.937 724.809 580.952 579.733 580.952C434.657 580.952 384 534.5 354.447 489.509C324.348 443.686 295.161 305.924 284.002 261.948C272.842 217.971 241.455 202.614 222.623 188.653C203.791 174.693 191.237 116.755 232.388 106.284C273.539 95.8136 562.994 89.5313 678.078 106.284C793.162 123.038 801.505 143.71 883.137 149.563ZM1171.71 142.467C1040.02 157.544 1028.72 233.212 1028.72 268.812C1028.72 441.926 1117.3 505.448 1161.25 526.389C1205.19 547.331 1260.99 552.915 1349.57 547.331C1438.15 541.746 1483.48 476.13 1516.96 406.326C1543.74 350.483 1544.86 256.945 1542.07 217.157C1540.68 199.008 1529.38 158.661 1495.34 142.467C1452.79 122.223 1336.31 123.62 1171.71 142.467ZM697.766 141.773C829.451 156.851 840.75 235.306 840.75 268.119C840.75 441.233 752.17 504.755 708.229 525.696C664.287 546.637 608.489 552.222 519.909 546.637C431.329 541.053 379 481.5 352.513 405.633C332.099 347.16 324.614 256.252 327.404 216.464C328.799 198.315 340.098 157.968 374.135 141.773C416.682 121.53 533.161 122.926 697.766 141.773ZM265.681 175.973C277.622 175.973 287.303 166.285 287.303 154.333C287.303 142.382 277.622 132.694 265.681 132.694C253.739 132.694 244.059 142.382 244.059 154.333C244.059 166.285 253.739 175.973 265.681 175.973ZM1603.45 175.973C1615.39 175.973 1625.07 166.285 1625.07 154.333C1625.07 142.382 1615.39 132.694 1603.45 132.694C1591.51 132.694 1581.83 142.382 1581.83 154.333C1581.83 166.285 1591.51 175.973 1603.45 175.973Z" fill="#505050"/>
<line y1="-7.5" x2="418" y2="-7.5" transform="matrix(1 0 0 -1 108 128)" stroke="#BDBDBD" stroke-width="15"/>
<line y1="-7.5" x2="418" y2="-7.5" transform="matrix(1 0 0 -1 108 535)" stroke="#BDBDBD" stroke-width="15"/>
<path d="M136 142L92.6987 217L179.301 217L136 142ZM136 535L179.301 460L92.6987 460L136 535ZM128.5 209.5L128.5 467.5L143.5 467.5L143.5 209.5L128.5 209.5Z" fill="#BDBDBD"/>
</svg>
