<svg width="1475" height="678" viewBox="0 0 1475 678" fill="none" xmlns="http://www.w3.org/2000/svg">
<rect width="1475" height="678" fill="white"/>
<path fill-rule="evenodd" clip-rule="evenodd" d="M685.137 149.563C728.064 152.641 752.424 152.797 795.339 149.563C874.56 143.593 883.919 116.057 994.121 106.284C1104.32 96.5118 1321.94 86.7392 1441.21 106.284C1464.92 116.057 1487.24 150.261 1441.21 188.653C1417.49 208.431 1393.78 231.234 1389.59 261.948C1382.15 316.628 1356.11 438.692 1311.47 489.509C1255.68 553.031 1211.73 582.349 1102.93 580.952C994.121 579.556 905.541 555.125 842.768 462.984C792.549 389.27 788.364 308.716 788.364 296.85C788.364 284.983 776.786 256.363 738.843 256.363C691.414 256.363 685.137 288.473 685.137 296.85C685.137 305.226 671.74 407.603 632.129 462.984C569.219 550.937 526.809 580.952 381.733 580.952C236.657 580.952 186 534.5 156.447 489.509C126.348 443.686 97.1613 305.924 86.0016 261.948C74.842 217.971 43.4553 202.614 24.6234 188.653C5.79139 174.693 -6.76297 116.755 34.3881 106.284C75.5392 95.8136 364.994 89.5313 480.078 106.284C595.162 123.038 603.505 143.71 685.137 149.563ZM973.708 142.467C842.024 157.544 830.725 233.212 830.725 268.812C830.725 441.926 919.305 505.448 963.246 526.389C1007.19 547.331 1062.99 552.915 1151.57 547.331C1240.15 541.746 1279.07 489.509 1318.96 406.326C1345.74 350.483 1346.86 256.945 1344.07 217.157C1342.68 199.008 1331.38 158.661 1297.34 142.467C1254.79 122.223 1138.31 123.62 973.708 142.467ZM499.766 141.773C631.451 156.851 642.75 235.306 642.75 268.119C642.75 441.233 554.17 504.755 510.229 525.696C466.287 546.637 410.489 552.222 321.909 546.637C233.329 541.053 181 481.5 154.513 405.633C134.099 347.16 126.614 256.252 129.404 216.464C130.799 198.315 142.098 157.968 176.135 141.773C218.682 121.53 335.161 122.926 499.766 141.773ZM67.6808 175.973C79.6223 175.973 89.3027 166.285 89.3027 154.333C89.3027 142.382 79.6223 132.694 67.6808 132.694C55.7394 132.694 46.0589 142.382 46.0589 154.333C46.0589 166.285 55.7394 175.973 67.6808 175.973ZM1405.45 175.973C1417.39 175.973 1427.07 166.285 1427.07 154.333C1427.07 142.382 1417.39 132.694 1405.45 132.694C1393.51 132.694 1383.83 142.382 1383.83 154.333C1383.83 166.285 1393.51 175.973 1405.45 175.973Z" fill="#505050"/>
<path d="M1334.89 230.25C1335.04 235.802 1335.04 242.01 1334.88 248.724L1327.38 248.546C1327.24 254.259 1326.99 260.356 1326.62 266.742L1334.11 267.179C1333.76 273.109 1333.31 279.275 1332.76 285.604L1325.29 284.953C1324.77 290.888 1324.16 296.968 1323.46 303.129L1330.91 303.981C1330.22 310.029 1329.44 316.156 1328.57 322.301L1321.14 321.245C1320.29 327.259 1319.34 333.287 1318.31 339.273L1325.7 340.548C1324.65 346.656 1323.5 352.724 1322.26 358.695L1314.91 357.168C1313.66 363.199 1312.31 369.119 1310.86 374.866L1318.13 376.699C1316.58 382.832 1314.93 388.785 1313.16 394.487L1305.99 392.262C1305.09 395.176 1304.15 398.016 1303.19 400.77C1302.18 403.659 1301.14 406.52 1300.05 409.352L1307.05 412.041C1304.8 417.914 1302.37 423.671 1299.77 429.294L1292.96 426.146C1290.4 431.701 1287.66 437.11 1284.74 442.355L1291.3 445.998C1288.24 451.499 1284.99 456.834 1281.54 461.982L1275.31 457.807C1271.93 462.847 1268.37 467.689 1264.61 472.316L1270.42 477.047C1266.47 481.915 1262.29 486.562 1257.9 490.965L1252.59 485.666C1248.36 489.902 1243.93 493.894 1239.28 497.622L1243.97 503.473C1239.11 507.366 1234.03 510.989 1228.71 514.321L1224.73 507.964C1219.73 511.094 1214.52 513.951 1209.08 516.517L1212.28 523.3C1206.72 525.925 1200.93 528.258 1194.91 530.278L1192.53 523.168C1186.99 525.027 1181.25 526.611 1175.28 527.9L1176.87 535.231C1170.91 536.52 1164.74 537.526 1158.38 538.232L1157.55 530.778C1154.61 531.105 1151.61 531.365 1148.57 531.557C1145.47 531.752 1142.42 531.933 1139.4 532.099L1139.82 539.588C1133.5 539.937 1127.36 540.223 1121.39 540.444L1121.11 532.949C1114.83 533.182 1108.75 533.341 1102.85 533.427L1102.96 540.926C1096.61 541.018 1090.47 541.025 1084.52 540.944L1084.62 533.444C1078.35 533.359 1072.29 533.175 1066.45 532.89L1066.08 540.381C1059.73 540.07 1053.6 539.641 1047.69 539.09L1048.39 531.623C1042.17 531.043 1036.21 530.326 1030.48 529.47L1029.37 536.888C1023.09 535.948 1017.05 534.842 1011.25 533.563L1012.86 526.239C1006.86 524.917 1001.13 523.409 995.621 521.711L993.41 528.877C987.397 527.022 981.63 524.941 976.067 522.628L978.947 515.703C976.204 514.562 973.514 513.362 970.872 512.103C968.071 510.768 965.068 509.244 961.906 507.509L958.299 514.085C952.733 511.031 946.701 507.357 940.409 502.96L944.705 496.813C939.524 493.193 934.157 489.062 928.726 484.357L923.815 490.025C918.77 485.654 913.674 480.807 908.619 475.439L914.079 470.297C909.641 465.584 905.233 460.45 900.921 454.862L894.983 459.443C890.854 454.09 886.813 448.338 882.916 442.159L889.259 438.158C885.772 432.628 882.399 426.739 879.184 420.469L872.51 423.89C869.419 417.862 866.472 411.497 863.705 404.777L870.64 401.921C868.129 395.825 865.767 389.422 863.582 382.696L856.449 385.013C854.348 378.546 852.41 371.795 850.656 364.748L857.935 362.938C856.333 356.502 854.889 349.806 853.621 342.841L846.242 344.184C845.024 337.492 843.966 330.563 843.085 323.389L850.529 322.474C849.713 315.83 849.051 308.965 848.556 301.872L841.074 302.394C840.6 295.596 840.277 288.6 840.117 281.397L847.615 281.231C847.539 277.804 847.5 274.329 847.5 270.804C847.5 267.947 847.594 264.72 847.868 261.207L840.39 260.625C840.86 254.602 841.827 247.772 843.678 240.521L850.945 242.375C852.411 236.628 854.467 230.621 857.325 224.566L850.543 221.364C853.29 215.545 856.731 209.671 861.032 203.911L867.042 208.398C870.599 203.634 874.803 198.938 879.774 194.421L874.731 188.87C879.468 184.566 884.841 180.426 890.934 176.535L894.971 182.856C900.055 179.608 905.7 176.525 911.97 173.668L908.859 166.843C914.692 164.185 921.014 161.725 927.864 159.505L930.177 166.639C936.066 164.73 942.384 162.997 949.163 161.471L947.516 154.154C953.829 152.732 960.51 151.49 967.58 150.448L968.674 157.867C971.888 157.394 975.188 156.962 978.576 156.574C981.848 156.199 985.101 155.832 988.333 155.471L987.503 148.017C994.078 147.285 1000.57 146.582 1006.98 145.909L1007.76 153.368C1014.35 152.676 1020.85 152.015 1027.26 151.387L1026.53 143.923C1033.14 143.276 1039.64 142.663 1046.05 142.084L1046.73 149.554C1053.33 148.958 1059.83 148.398 1066.22 147.876L1065.61 140.401C1072.25 139.859 1078.76 139.356 1085.17 138.894L1085.71 146.375C1092.34 145.896 1098.84 145.46 1105.22 145.069L1104.76 137.583C1111.42 137.174 1117.94 136.812 1124.31 136.499L1124.68 143.99C1131.35 143.663 1137.86 143.389 1144.2 143.168L1143.94 135.673C1150.67 135.439 1157.21 135.266 1163.56 135.154L1163.7 142.653C1170.4 142.534 1176.89 142.485 1183.16 142.504L1183.19 135.004C1189.98 135.025 1196.52 135.127 1202.8 135.311L1202.58 142.808C1209.34 143.006 1215.78 143.299 1221.89 143.689L1222.37 136.204C1229.3 136.645 1235.83 137.208 1241.95 137.896L1241.11 145.349C1247.97 146.119 1254.26 147.043 1259.97 148.119L1261.36 140.748C1268.5 142.094 1274.84 143.681 1280.35 145.514L1277.98 152.63C1281.08 153.662 1283.83 154.753 1286.23 155.895C1289.24 157.331 1292.06 158.992 1294.68 160.836L1298.99 154.703C1305.22 159.083 1310.45 164.359 1314.81 170.059L1308.86 174.621C1313.09 180.134 1316.47 186.142 1319.12 192.143L1325.98 189.111C1329.25 196.519 1331.45 203.812 1332.81 210.133L1325.47 211.707C1326.3 215.542 1326.77 218.919 1326.98 221.606C1327.17 224.286 1327.31 227.244 1327.39 230.453L1334.89 230.25Z" fill="#E8E8E8" stroke="#BDBDBD" stroke-width="15" stroke-dasharray="20 20"/>
</svg>
