<svg width="1475" height="678" viewBox="0 0 1475 678" fill="none" xmlns="http://www.w3.org/2000/svg">
<rect width="1475" height="678" fill="white"/>
<path fill-rule="evenodd" clip-rule="evenodd" d="M685.137 149.563C728.064 152.641 752.424 152.797 795.339 149.563C874.56 143.593 883.919 116.057 994.121 106.284C1104.32 96.5118 1321.94 86.7392 1441.21 106.284C1464.92 116.057 1487.24 150.261 1441.21 188.653C1417.49 208.431 1393.78 231.234 1389.59 261.948C1382.15 316.628 1356.11 438.692 1311.47 489.509C1255.68 553.031 1211.73 582.349 1102.93 580.952C994.121 579.556 905.541 555.125 842.768 462.984C792.549 389.27 788.364 308.716 788.364 296.85C788.364 284.983 776.786 256.363 738.843 256.363C691.414 256.363 685.137 288.473 685.137 296.85C685.137 305.226 671.74 407.603 632.129 462.984C569.219 550.937 526.809 580.952 381.733 580.952C236.657 580.952 186 534.5 156.447 489.509C126.348 443.686 97.1613 305.924 86.0016 261.948C74.842 217.971 43.4553 202.614 24.6234 188.653C5.79139 174.693 -6.76297 116.755 34.3881 106.284C75.5392 95.8136 364.994 89.5313 480.078 106.284C595.162 123.038 603.505 143.71 685.137 149.563ZM973.708 142.467C842.024 157.544 830.725 233.212 830.725 268.812C830.725 441.926 919.305 505.448 963.246 526.389C1007.19 547.331 1062.99 552.915 1151.57 547.331C1240.15 541.746 1285.48 476.13 1318.96 406.326C1345.74 350.483 1346.86 256.945 1344.07 217.157C1342.68 199.008 1331.38 158.661 1297.34 142.467C1254.79 122.223 1138.31 123.62 973.708 142.467ZM499.766 141.773C631.451 156.851 642.75 235.306 642.75 268.119C642.75 441.233 554.17 504.755 510.229 525.696C466.287 546.637 410.489 552.222 321.909 546.637C233.329 541.053 181 481.5 154.513 405.633C134.099 347.16 126.614 256.252 129.404 216.464C130.799 198.315 142.098 157.968 176.135 141.773C218.682 121.53 335.161 122.926 499.766 141.773ZM67.6808 175.973C79.6223 175.973 89.3027 166.285 89.3027 154.333C89.3027 142.382 79.6223 132.694 67.6808 132.694C55.7394 132.694 46.0589 142.382 46.0589 154.333C46.0589 166.285 55.7394 175.973 67.6808 175.973ZM1405.45 175.973C1417.39 175.973 1427.07 166.285 1427.07 154.333C1427.07 142.382 1417.39 132.694 1405.45 132.694C1393.51 132.694 1383.83 142.382 1383.83 154.333C1383.83 166.285 1393.51 175.973 1405.45 175.973Z" fill="#505050"/>
<path d="M138.11 230.25C137.96 235.802 137.962 242.01 138.122 248.724L145.62 248.546C145.756 254.259 146.009 260.356 146.381 266.742L138.893 267.179C139.239 273.109 139.686 279.275 140.238 285.604L147.709 284.953C148.226 290.888 148.836 296.968 149.54 303.129L142.089 303.981C142.78 310.029 143.561 316.156 144.435 322.301L151.86 321.245C152.715 327.259 153.658 333.287 154.691 339.273L147.301 340.548C148.355 346.656 149.502 352.724 150.745 358.695L158.088 357.168C159.343 363.199 160.694 369.119 162.142 374.866L154.87 376.699C156.415 382.832 158.073 388.785 159.844 394.487L167.006 392.262C167.912 395.176 168.845 398.016 169.807 400.77C170.816 403.659 171.864 406.52 172.951 409.352L165.949 412.041C168.205 417.914 170.629 423.671 173.229 429.294L180.036 426.146C182.605 431.701 185.344 437.11 188.259 442.355L181.704 445.998C184.761 451.499 188.011 456.834 191.46 461.982L197.691 457.807C201.067 462.847 204.633 467.689 208.395 472.316L202.576 477.047C206.534 481.915 210.707 486.562 215.103 490.965L220.41 485.666C224.639 489.902 229.075 493.894 233.724 497.622L229.032 503.473C233.886 507.366 238.969 510.989 244.288 514.321L248.269 507.964C253.265 511.094 258.479 513.951 263.917 516.517L260.717 523.3C266.281 525.925 272.069 528.258 278.085 530.278L280.473 523.168C286.008 525.027 291.754 526.611 297.719 527.9L296.134 535.231C302.095 536.52 308.255 537.526 314.62 538.232L315.447 530.778C318.394 531.105 321.39 531.365 324.435 531.557C327.531 531.752 330.584 531.933 333.595 532.099L333.182 539.588C339.501 539.937 345.642 540.223 351.613 540.444L351.891 532.949C358.169 533.182 364.252 533.341 370.151 533.427L370.042 540.926C376.387 541.018 382.528 541.025 388.478 540.944L388.376 533.444C394.654 533.359 400.707 533.175 406.549 532.89L406.915 540.381C413.272 540.07 419.396 539.641 425.306 539.09L424.609 531.623C430.828 531.043 436.789 530.326 442.518 529.47L443.627 536.888C449.914 535.948 455.947 534.842 461.753 533.563L460.14 526.239C466.14 524.917 471.874 523.409 477.379 521.711L479.59 528.877C485.603 527.022 491.37 524.941 496.933 522.628L494.053 515.703C496.796 514.562 499.486 513.362 502.128 512.103C504.929 510.768 507.932 509.244 511.094 507.509L514.701 514.085C520.267 511.031 526.299 507.357 532.591 502.96L528.295 496.813C533.476 493.193 538.843 489.062 544.274 484.357L549.185 490.025C554.23 485.654 559.326 480.807 564.381 475.439L558.921 470.297C563.359 465.584 567.767 460.45 572.079 454.862L578.017 459.443C582.146 454.09 586.187 448.338 590.084 442.159L583.741 438.158C587.228 432.628 590.601 426.739 593.816 420.469L600.49 423.89C603.581 417.862 606.528 411.497 609.295 404.777L602.36 401.921C604.871 395.825 607.233 389.422 609.418 382.696L616.551 385.013C618.652 378.546 620.59 371.795 622.344 364.748L615.065 362.938C616.667 356.502 618.111 349.806 619.379 342.841L626.758 344.184C627.976 337.492 629.034 330.563 629.915 323.389L622.471 322.474C623.287 315.83 623.949 308.965 624.444 301.872L631.926 302.394C632.4 295.596 632.723 288.6 632.883 281.397L625.385 281.231C625.461 277.804 625.5 274.329 625.5 270.804C625.5 267.947 625.406 264.72 625.132 261.207L632.61 260.625C632.14 254.602 631.173 247.772 629.322 240.521L622.055 242.375C620.589 236.628 618.533 230.621 615.675 224.566L622.457 221.364C619.71 215.545 616.269 209.671 611.968 203.911L605.958 208.398C602.401 203.634 598.197 198.938 593.226 194.421L598.269 188.87C593.532 184.566 588.159 180.426 582.066 176.535L578.029 182.856C572.945 179.608 567.3 176.525 561.03 173.668L564.141 166.843C558.308 164.185 551.986 161.725 545.136 159.505L542.823 166.639C536.934 164.73 530.616 162.997 523.837 161.471L525.484 154.154C519.171 152.732 512.49 151.49 505.42 150.448L504.326 157.867C501.112 157.394 497.812 156.962 494.424 156.574C491.152 156.199 487.899 155.832 484.667 155.471L485.497 148.017C478.922 147.285 472.43 146.582 466.022 145.909L465.239 153.368C458.647 152.676 452.145 152.015 445.736 151.387L446.468 143.923C439.863 143.276 433.355 142.663 426.946 142.084L426.272 149.554C419.667 148.958 413.168 148.398 406.779 147.876L407.39 140.401C400.754 139.859 394.235 139.356 387.835 138.894L387.295 146.375C380.66 145.896 374.156 145.46 367.785 145.069L368.244 137.583C361.581 137.174 355.06 136.812 348.685 136.499L348.317 143.99C341.647 143.663 335.14 143.389 328.801 143.168L329.061 135.673C322.334 135.439 315.79 135.266 309.436 135.154L309.304 142.653C302.596 142.534 296.105 142.485 289.838 142.504L289.814 135.004C283.021 135.025 276.48 135.127 270.2 135.311L270.419 142.808C263.661 143.006 257.221 143.299 251.105 143.689L250.629 136.204C243.704 136.645 237.173 137.208 231.049 137.896L231.887 145.349C225.032 146.119 218.744 147.043 213.033 148.119L211.644 140.748C204.501 142.094 198.158 143.681 192.649 145.514L195.017 152.63C191.917 153.662 189.174 154.753 186.775 155.895C183.755 157.331 180.943 158.992 178.323 160.836L174.006 154.703C167.784 159.083 162.554 164.359 158.186 170.059L164.139 174.621C159.915 180.134 156.534 186.142 153.882 192.143L147.022 189.111C143.748 196.519 141.551 203.812 140.194 210.133L147.527 211.707C146.703 215.542 146.229 218.919 146.021 221.606C145.833 224.286 145.695 227.244 145.608 230.453L138.11 230.25Z" fill="#E8E8E8" stroke="#BDBDBD" stroke-width="15" stroke-dasharray="20 20"/>
</svg>
