<svg width="1718" height="1471" viewBox="0 0 1718 1471" fill="none" xmlns="http://www.w3.org/2000/svg">
<rect width="1718" height="1468" fill="white"/>
<path fill-rule="evenodd" clip-rule="evenodd" d="M276.73 736.036L276.5 568.08C277.43 468.482 296.032 239.221 362.999 118.962C376.02 94.8353 380.67 77.2046 417.874 69.7812C455.078 62.3577 727.595 16.8892 869.899 11.3216C1012.2 5.754 1180.55 -5.38117 1248.45 11.3216C1316.34 28.0243 1524.68 111.539 1661.41 221.963C1678.15 231.242 1680.94 247.017 1644.67 247.945C1608.39 248.873 1567.47 247.017 1539.57 221.963C1511.66 196.909 1409.48 106.267 1307.04 71.6381C1241.09 49.3408 1246.21 45.2419 1131.26 41.9443C1016.31 38.6467 950.632 43.0586 838.276 54.9353C697.832 69.7812 501.583 102.258 459.729 118.962C417.874 135.665 404.853 145.872 404.853 158.864C403.923 162.885 409.238 176.494 424.385 193.197C442.057 212.683 448.567 232.17 454.148 268.359C459.729 321.87 466.239 443.367 447.637 501.27C435.546 543.955 417.874 551.376 417.874 568.08C417.874 584.784 426.245 593.135 439.266 602.414L439.755 602.762C453.379 612.46 497.071 643.559 432.756 669.225C367.649 695.207 371.37 689.64 358.348 699.847C345.327 710.054 339.747 723.044 339.747 736.037C339.747 749.028 345.557 762.945 358.578 773.153C371.599 783.36 367.879 777.792 432.986 803.774C497.301 829.441 453.609 860.54 439.985 870.237L439.496 870.585C426.475 879.865 418.104 888.216 418.104 904.92C418.104 921.624 435.776 929.045 447.867 971.73C466.469 1029.63 459.958 1151.13 454.378 1204.64C448.797 1240.83 442.287 1260.32 424.615 1279.8C409.467 1296.51 404.153 1310.12 405.083 1314.14C405.083 1327.13 418.104 1337.33 459.958 1354.04C501.813 1370.74 689.289 1403.44 838.506 1418.06C952.488 1429.23 1018.52 1431.06 1131.49 1431.06C1201.11 1431.06 1241.32 1423.66 1307.27 1401.36C1409.71 1366.73 1511.89 1276.09 1539.8 1251.04C1567.7 1225.98 1608.62 1224.13 1644.9 1225.06C1681.17 1225.98 1678.38 1241.76 1661.64 1251.04C1524.91 1361.46 1316.57 1444.98 1248.68 1461.68C1180.78 1478.38 1012.43 1467.25 870.129 1461.68C727.825 1456.11 455.308 1410.64 418.104 1403.22C380.9 1395.8 376.25 1378.16 363.228 1354.04C296.262 1233.78 277.66 1004.52 276.73 904.92L276.73 736.036ZM325.795 605.198C325.795 582.186 328.895 467.555 330.446 413.117C334.163 272.071 374.16 203.404 387.181 204.332C400.203 205.26 412.294 224.747 421.595 270.215C430.896 315.684 426.245 400.126 421.595 470.648C416.968 540.808 381.964 585.253 361.456 611.291L361.139 611.694C340.677 637.676 325.795 633.964 325.795 605.198ZM326.025 867.8C326.025 890.812 329.125 1005.44 330.675 1059.88C334.393 1200.93 374.39 1269.59 387.411 1268.67C400.432 1267.74 412.523 1248.25 421.824 1202.78C431.125 1157.31 426.475 1072.87 421.824 1002.35C417.198 932.19 382.194 887.746 361.686 861.707L361.368 861.304C340.906 835.322 326.025 839.034 326.025 867.8Z" fill="#505050"/>
<line x1="450" y1="82.5" x2="62" y2="82.5" stroke="#BDBDBD" stroke-width="15"/>
<line x1="450" y1="1401.5" x2="62" y2="1401.5" stroke="#BDBDBD" stroke-width="15"/>
<path d="M157 92L113.699 167L200.301 167L157 92ZM157 1393L200.301 1318L113.699 1318L157 1393ZM149.5 159.5L149.5 1325.5L164.5 1325.5L164.5 159.5L149.5 159.5Z" fill="#BDBDBD"/>
</svg>
