<svg width="1642" height="737" viewBox="0 0 1642 737" fill="none" xmlns="http://www.w3.org/2000/svg">
<rect width="1642" height="737" fill="white"/>
<path fill-rule="evenodd" clip-rule="evenodd" d="M859.137 149.563C902.064 152.641 926.424 152.797 969.339 149.563C1048.56 143.593 1057.92 116.057 1168.12 106.284C1278.32 96.5118 1495.94 86.7392 1615.21 106.284C1638.92 116.057 1661.24 150.261 1615.21 188.653C1591.49 208.431 1567.78 231.234 1563.59 261.948C1556.15 316.628 1530.11 438.692 1485.47 489.509C1429.68 553.031 1385.73 582.349 1276.93 580.952C1168.12 579.556 1079.54 555.125 1016.77 462.984C966.549 389.27 962.364 308.716 962.364 296.85C962.364 284.983 950.786 256.363 912.843 256.363C865.414 256.363 859.137 288.473 859.137 296.85C859.137 305.226 845.74 407.603 806.129 462.984C743.219 550.937 700.809 580.952 555.733 580.952C410.657 580.952 360 534.5 330.447 489.509C300.348 443.686 271.161 305.924 260.002 261.948C248.842 217.971 217.455 202.614 198.623 188.653C179.791 174.693 167.237 116.755 208.388 106.284C249.539 95.8136 538.994 89.5313 654.078 106.284C769.162 123.038 777.505 143.71 859.137 149.563ZM1147.71 142.467C1016.02 157.544 1004.72 233.212 1004.72 268.812C1004.72 441.926 1093.3 505.448 1137.25 526.389C1181.19 547.331 1236.99 552.915 1325.57 547.331C1414.15 541.746 1459.48 476.13 1492.96 406.326C1519.74 350.483 1520.86 256.945 1518.07 217.157C1516.68 199.008 1505.38 158.661 1471.34 142.467C1428.79 122.223 1312.31 123.62 1147.71 142.467ZM673.766 141.773C805.451 156.851 816.75 235.306 816.75 268.119C816.75 441.233 728.17 504.755 684.229 525.696C640.287 546.637 584.489 552.222 495.909 546.637C407.329 541.053 355 481.5 328.513 405.633C308.099 347.16 300.614 256.252 303.404 216.464C304.799 198.315 316.098 157.968 350.135 141.773C392.682 121.53 509.161 122.926 673.766 141.773ZM241.681 175.973C253.622 175.973 263.303 166.285 263.303 154.333C263.303 142.382 253.622 132.694 241.681 132.694C229.739 132.694 220.059 142.382 220.059 154.333C220.059 166.285 229.739 175.973 241.681 175.973ZM1579.45 175.973C1591.39 175.973 1601.07 166.285 1601.07 154.333C1601.07 142.382 1591.39 132.694 1579.45 132.694C1567.51 132.694 1557.83 142.382 1557.83 154.333C1557.83 166.285 1567.51 175.973 1579.45 175.973Z" fill="#505050"/>
<line y1="-7.5" x2="152" y2="-7.5" transform="matrix(1 -8.74228e-08 -8.74228e-08 -1 49 136)" stroke="#BDBDBD" stroke-width="15"/>
<line y1="-7.5" x2="548" y2="-7.5" transform="matrix(1 0 0 -1 49 581)" stroke="#BDBDBD" stroke-width="15"/>
<path d="M100 141L56.6987 216L143.301 216L100 141ZM100 579L143.301 504L56.6987 504L100 579ZM92.5 208.5L92.5 511.5L107.5 511.5L107.5 208.5L92.5 208.5Z" fill="#BDBDBD"/>
</svg>
