<svg width="1825" height="1479" viewBox="0 0 1825 1479" fill="none" xmlns="http://www.w3.org/2000/svg">
<rect width="1783" height="1468" transform="translate(0 8)" fill="white"/>
<path fill-rule="evenodd" clip-rule="evenodd" d="M59.7297 744.036L59.5 576.08C60.43 476.482 79.032 247.221 145.999 126.962C159.02 102.835 163.67 85.2046 200.874 77.7812C238.078 70.3577 510.595 24.8892 652.899 19.3216C795.204 13.754 963.55 2.61883 1031.45 19.3216C1099.34 36.0243 1307.68 119.539 1444.41 229.963C1461.15 239.242 1463.94 255.017 1427.67 255.945C1391.39 256.873 1350.47 255.017 1322.57 229.963C1294.66 204.909 1192.48 114.267 1090.04 79.6381C1024.09 57.3408 1029.21 53.2419 914.256 49.9443C799.305 46.6467 733.632 51.0586 621.276 62.9353C480.832 77.7812 284.583 110.258 242.729 126.962C200.874 143.665 187.853 153.872 187.853 166.864C186.923 170.885 192.238 184.494 207.385 201.197C225.057 220.683 231.567 240.17 237.148 276.359C242.729 329.87 249.239 451.367 230.637 509.27C218.546 551.955 200.874 559.376 200.874 576.08C200.874 592.784 209.245 601.135 222.266 610.414L222.755 610.762C236.379 620.46 280.071 651.559 215.756 677.225C150.649 703.207 154.37 697.64 141.348 707.847C128.327 718.054 122.747 731.044 122.747 744.037C122.747 757.028 128.557 770.945 141.578 781.153C154.599 791.36 150.879 785.792 215.986 811.774C280.301 837.441 236.609 868.54 222.985 878.237L222.496 878.585C209.475 887.865 201.104 896.216 201.104 912.92C201.104 929.624 218.776 937.045 230.867 979.73C249.469 1037.63 242.958 1159.13 237.378 1212.64C231.797 1248.83 225.287 1268.32 207.615 1287.8C192.467 1304.51 187.153 1318.12 188.083 1322.14C188.083 1335.13 201.104 1345.33 242.958 1362.04C284.813 1378.74 472.289 1411.44 621.506 1426.06C735.488 1437.23 801.518 1439.06 914.485 1439.06C984.107 1439.06 1024.32 1431.66 1090.27 1409.36C1192.71 1374.73 1294.89 1284.09 1322.8 1259.04C1350.7 1233.98 1391.62 1232.13 1427.9 1233.06C1464.17 1233.98 1461.38 1249.76 1444.64 1259.04C1307.91 1369.46 1099.57 1452.98 1031.68 1469.68C963.78 1486.38 795.433 1475.25 653.129 1469.68C510.825 1464.11 238.308 1418.64 201.104 1411.22C163.9 1403.8 159.25 1386.16 146.228 1362.04C79.2617 1241.78 60.6599 1012.52 59.7297 912.92L59.7297 744.036ZM108.795 613.198C108.795 590.186 111.895 475.555 113.446 421.117C117.163 280.071 157.16 211.404 170.181 212.332C183.203 213.26 195.294 232.747 204.595 278.215C213.896 323.684 209.245 408.126 204.595 478.648C199.968 548.808 164.964 593.253 144.456 619.291L144.139 619.694C123.677 645.676 108.795 641.964 108.795 613.198ZM109.025 875.8C109.025 898.812 112.125 1013.44 113.675 1067.88C117.393 1208.93 157.39 1277.59 170.411 1276.67C183.432 1275.74 195.523 1256.25 204.824 1210.78C214.125 1165.31 209.475 1080.87 204.824 1010.35C200.198 940.19 165.194 895.746 144.686 869.707L144.368 869.304C123.906 843.322 109.025 847.034 109.025 875.8Z" fill="#505050"/>
<path d="M1671.91 309.202L1743.45 260.397L1665.42 222.843L1671.91 309.202ZM1747.74 15.7764L1700.22 88.1745L1786.68 93.1322L1747.74 15.7764ZM1708.1 251.262C1730.28 197.808 1744.83 141.501 1751.33 83.998L1736.43 82.3124C1730.08 138.419 1715.88 193.359 1694.25 245.514L1708.1 251.262Z" fill="#BDBDBD"/>
<path d="M1111.62 1.80015C1107.99 -0.196563 1103.43 1.12677 1101.43 4.75588C1099.43 8.38498 1100.76 12.9456 1104.38 14.9423L1111.62 1.80015ZM1739.81 347.429L1111.62 1.80015L1104.38 14.9423L1732.58 360.571L1739.81 347.429Z" fill="#BDBDBD"/>
<path d="M1108 0.5C1103.86 0.5 1100.5 3.85786 1100.5 8C1100.5 12.1421 1103.86 15.5 1108 15.5V0.5ZM1825 0.5L1108 0.5V15.5L1825 15.5V0.5Z" fill="#BDBDBD"/>
</svg>
