<svg width="1566" height="1471" viewBox="0 0 1566 1471" fill="none" xmlns="http://www.w3.org/2000/svg">
<rect width="1566" height="1468" fill="white"/>
<path fill-rule="evenodd" clip-rule="evenodd" d="M59.7297 736.036L59.5 568.08C60.43 468.482 79.032 239.221 145.999 118.962C159.02 94.8353 163.67 77.2046 200.874 69.7812C238.078 62.3577 510.595 16.8892 652.899 11.3216C795.204 5.754 963.55 -5.38117 1031.45 11.3216C1099.34 28.0243 1307.68 111.539 1444.41 221.963C1461.15 231.242 1463.94 247.017 1427.67 247.945C1391.39 248.873 1350.47 247.017 1322.57 221.963C1294.66 196.909 1192.48 106.267 1090.04 71.6381C1024.09 49.3408 1029.21 45.2419 914.256 41.9443C799.305 38.6467 733.632 43.0586 621.276 54.9353C480.832 69.7812 284.583 102.258 242.729 118.962C200.874 135.665 187.853 145.872 187.853 158.864C186.923 162.885 192.238 176.494 207.385 193.197C225.057 212.683 231.567 232.17 237.148 268.359C242.729 321.87 249.239 443.367 230.637 501.27C218.546 543.955 200.874 551.376 200.874 568.08C200.874 584.784 209.245 593.135 222.266 602.414L222.755 602.762C236.379 612.46 280.071 643.559 215.756 669.225C150.649 695.207 154.37 689.64 141.348 699.847C128.327 710.054 122.747 723.044 122.747 736.037C122.747 749.028 128.557 762.945 141.578 773.153C154.599 783.36 150.879 777.792 215.986 803.774C280.301 829.441 236.609 860.54 222.985 870.237L222.496 870.585C209.475 879.865 201.104 888.216 201.104 904.92C201.104 921.624 218.776 929.045 230.867 971.73C249.469 1029.63 242.958 1151.13 237.378 1204.64C231.797 1240.83 225.287 1260.32 207.615 1279.8C192.467 1296.51 187.153 1310.12 188.083 1314.14C188.083 1327.13 201.104 1337.33 242.958 1354.04C284.813 1370.74 472.289 1403.44 621.506 1418.06C735.488 1429.23 801.518 1431.06 914.485 1431.06C984.107 1431.06 1024.32 1423.66 1090.27 1401.36C1192.71 1366.73 1294.89 1276.09 1322.8 1251.04C1350.7 1225.98 1391.62 1224.13 1427.9 1225.06C1464.17 1225.98 1461.38 1241.76 1444.64 1251.04C1307.91 1361.46 1099.57 1444.98 1031.68 1461.68C963.78 1478.38 795.433 1467.25 653.129 1461.68C510.825 1456.11 238.308 1410.64 201.104 1403.22C163.9 1395.8 159.25 1378.16 146.228 1354.04C79.2617 1233.78 60.6599 1004.52 59.7297 904.92L59.7297 736.036ZM108.795 605.198C108.795 582.186 111.895 467.555 113.446 413.117C117.163 272.071 157.16 203.404 170.181 204.332C183.203 205.26 195.294 224.747 204.595 270.215C213.896 315.684 209.245 400.126 204.595 470.648C199.968 540.808 164.964 585.253 144.456 611.291L144.139 611.694C123.677 637.676 108.795 633.964 108.795 605.198ZM109.025 867.8C109.025 890.812 112.125 1005.44 113.675 1059.88C117.393 1200.93 157.39 1269.59 170.411 1268.67C183.432 1267.74 195.523 1248.25 204.824 1202.78C214.125 1157.31 209.475 1072.87 204.824 1002.35C200.198 932.19 165.194 887.746 144.686 861.707L144.368 861.304C123.906 835.322 109.025 839.034 109.025 867.8Z" fill="#505050"/>
<path d="M117 383.638L198.477 354.287L183.157 439.524L117 383.638ZM255.209 390.148L256.745 397.488L255.209 390.148ZM379.243 328.755L384.147 334.43V334.43L379.243 328.755ZM458.005 214.854L450.965 212.267L458.005 214.854ZM471.748 77L517.37 150.612L430.809 153.315L471.748 77ZM183.853 388.091C207.164 389.379 230.636 387.627 253.672 382.807L256.745 397.488C232.422 402.579 207.638 404.429 183.025 403.068L183.853 388.091ZM253.672 382.807C298.301 373.467 339.825 352.914 374.338 323.081L384.147 334.43C347.709 365.927 303.867 387.627 256.745 397.488L253.672 382.807ZM374.338 323.081C408.852 293.248 435.221 255.115 450.965 212.267L465.045 217.441C448.424 262.674 420.586 302.933 384.147 334.43L374.338 323.081ZM450.965 212.267C459.101 190.126 464.262 167.101 466.387 143.793L481.325 145.155C479.081 169.76 473.634 194.066 465.045 217.441L450.965 212.267Z" fill="#BDBDBD"/>
</svg>
