<svg width="1550" height="1754" viewBox="0 0 1550 1754" fill="none" xmlns="http://www.w3.org/2000/svg">
<rect width="1550" height="1754" fill="white"/>
<path fill-rule="evenodd" clip-rule="evenodd" d="M59.7297 791.036L59.5 623.08C60.43 523.482 79.032 294.221 145.999 173.962C159.02 149.835 163.67 132.205 200.874 124.781C238.078 117.358 510.595 71.8892 652.899 66.3216C795.204 60.754 963.55 49.6188 1031.45 66.3216C1099.34 83.0243 1307.68 166.539 1444.41 276.963C1461.15 286.242 1463.94 302.017 1427.67 302.945C1391.39 303.873 1350.47 302.017 1322.57 276.963C1294.66 251.909 1192.48 161.267 1090.04 126.638C1024.09 104.341 1029.21 100.242 914.256 96.9443C799.305 93.6467 733.632 98.0586 621.276 109.935C480.832 124.781 284.583 157.258 242.729 173.962C200.874 190.665 187.853 200.872 187.853 213.864C186.923 217.885 192.238 231.494 207.385 248.197C225.057 267.683 231.567 287.17 237.148 323.359C242.729 376.87 249.239 498.367 230.637 556.27C218.546 598.955 200.874 606.376 200.874 623.08C200.874 639.784 209.245 648.135 222.266 657.414L222.755 657.762C236.379 667.46 280.071 698.559 215.756 724.225C150.649 750.207 154.37 744.64 141.348 754.847C128.327 765.054 122.747 778.044 122.747 791.037C122.747 804.028 128.557 817.945 141.578 828.153C154.599 838.36 150.879 832.792 215.986 858.774C280.301 884.441 236.609 915.54 222.985 925.237L222.496 925.585C209.475 934.865 201.104 943.216 201.104 959.92C201.104 976.624 218.776 984.045 230.867 1026.73C249.469 1084.63 242.958 1206.13 237.378 1259.64C231.797 1295.83 225.287 1315.32 207.615 1334.8C192.467 1351.51 187.153 1365.12 188.083 1369.14C188.083 1382.13 201.104 1392.33 242.958 1409.04C284.813 1425.74 472.289 1458.44 621.506 1473.06C735.488 1484.23 801.518 1486.06 914.485 1486.06C984.107 1486.06 1024.32 1478.66 1090.27 1456.36C1192.71 1421.73 1294.89 1331.09 1322.8 1306.04C1350.7 1280.98 1391.62 1279.13 1427.9 1280.06C1464.17 1280.98 1461.38 1296.76 1444.64 1306.04C1307.91 1416.46 1099.57 1499.98 1031.68 1516.68C963.78 1533.38 795.433 1522.25 653.129 1516.68C510.825 1511.11 238.308 1465.64 201.104 1458.22C163.9 1450.8 159.25 1433.16 146.228 1409.04C79.2617 1288.78 60.6599 1059.52 59.7297 959.92L59.7297 791.036ZM108.795 660.198C108.795 637.186 111.895 522.555 113.446 468.117C117.163 327.071 157.16 258.404 170.181 259.332C183.203 260.26 195.294 279.747 204.595 325.215C213.896 370.684 209.245 455.126 204.595 525.648C199.968 595.808 164.964 640.253 144.456 666.291L144.139 666.694C123.677 692.676 108.795 688.964 108.795 660.198ZM109.025 922.8C109.025 945.812 112.125 1060.44 113.675 1114.88C117.393 1255.93 157.39 1324.59 170.411 1323.67C183.432 1322.74 195.523 1303.25 204.824 1257.78C214.125 1212.31 209.475 1127.87 204.824 1057.35C200.198 987.19 165.194 942.746 144.686 916.707L144.368 916.304C123.906 890.322 109.025 894.034 109.025 922.8Z" fill="#505050"/>
<g filter="url(#filter0_d_3787_6965)">
<line y1="-7.5" x2="369" y2="-7.5" transform="matrix(3.29527e-08 1 1 -5.79827e-08 1474 1256)" stroke="#BDBDBD" stroke-width="15"/>
<line y1="-7.5" x2="369" y2="-7.5" transform="matrix(3.49769e-08 1 1 -5.46271e-08 177 1256)" stroke="#BDBDBD" stroke-width="15"/>
<path d="M1457 1579L1382 1622.3V1535.7L1457 1579ZM180 1579L255 1535.7V1622.3L180 1579ZM1389.5 1586.5L247.5 1586.5V1571.5L1389.5 1571.5V1586.5Z" fill="#BDBDBD"/>
</g>
<defs>
<filter id="filter0_d_3787_6965" x="158" y="1256" width="1320" height="377" filterUnits="userSpaceOnUse" color-interpolation-filters="sRGB">
<feFlood flood-opacity="0" result="BackgroundImageFix"/>
<feColorMatrix in="SourceAlpha" type="matrix" values="0 0 0 0 0 0 0 0 0 0 0 0 0 0 0 0 0 0 127 0" result="hardAlpha"/>
<feOffset dy="4"/>
<feGaussianBlur stdDeviation="2"/>
<feComposite in2="hardAlpha" operator="out"/>
<feColorMatrix type="matrix" values="0 0 0 0 0 0 0 0 0 0 0 0 0 0 0 0 0 0 0.25 0"/>
<feBlend mode="normal" in2="BackgroundImageFix" result="effect1_dropShadow_3787_6965"/>
<feBlend mode="normal" in="SourceGraphic" in2="effect1_dropShadow_3787_6965" result="shape"/>
</filter>
</defs>
</svg>
