<svg width="1762" height="864" viewBox="0 0 1762 864" fill="none" xmlns="http://www.w3.org/2000/svg">
<path d="M16.988 3.92249C22.581 1.6725 36.7966 0.406873 43.2053 0.0553112C67.3252 -1.26767 85.5025 21.5009 94.9407 29.9381C99.5438 34.053 105.428 36.9693 110.671 36.9693L1128.95 36.9693C1360.71 36.9693 1407.2 99.5473 1438.31 113.61C1469.43 127.672 1588.63 202.555 1671.47 249.664C1754.32 296.774 1702.58 314.352 1683.01 323.844C1629.53 349.859 1609.95 322.438 1584.43 293.961C1496.69 192.711 1368.4 124.508 1335.54 113.61C1302.68 102.711 1240.46 98.1411 1216.69 99.5473C1192.92 100.954 137.587 119.938 123.605 120.641C109.622 121.344 109.972 126.969 110.671 132.243C127.101 272.164 132.694 311.188 118.361 335.094C108.877 350.914 98.4363 359 88.6486 359C59.9758 359 50.1965 330.172 43.2053 307.32C36.214 284.469 5.4524 86.8911 0.908072 48.9224C-3.63626 10.9537 9.99673 6.73499 16.988 3.92249Z" fill="#505050"/>
<path d="M147 143.5C142.858 143.5 139.5 146.858 139.5 151C139.5 155.142 142.858 158.5 147 158.5V143.5ZM864 143.5L147 143.5V158.5L864 158.5V143.5Z" fill="#BDBDBD"/>
<path d="M236 757L317.657 785.847L301.81 700.706L236 757ZM610.867 557.756L605.24 552.798L610.867 557.756ZM762 160L714.267 232.261L800.713 237.468L762 160ZM304.155 751.931C424.54 722.44 533.702 656.682 616.494 562.715L605.24 552.798C524.479 644.46 418.001 708.598 300.586 737.362L304.155 751.931ZM616.494 562.715C699.344 468.682 751.015 351.818 765.392 228.228L750.492 226.495C736.466 347.067 686.057 461.073 605.24 552.798L616.494 562.715Z" fill="#BDBDBD"/>
<path d="M152.999 150C152.468 145.892 148.708 142.992 144.6 143.522C140.492 144.053 137.592 147.813 138.122 151.921L152.999 150ZM244.829 861.095L152.999 150L138.122 151.921L229.952 863.016L244.829 861.095Z" fill="#BDBDBD"/>
</svg>
