<svg width="1550" height="1670" viewBox="0 0 1550 1670" fill="none" xmlns="http://www.w3.org/2000/svg">
<rect width="1550" height="1659" fill="white"/>
<g filter="url(#filter0_d_3787_6931)">
<path fill-rule="evenodd" clip-rule="evenodd" d="M59.7297 927.036L59.5 759.08C60.43 659.482 79.032 430.221 145.999 309.962C159.02 285.835 163.67 268.205 200.874 260.781C238.078 253.358 510.595 207.889 652.899 202.322C795.204 196.754 963.55 185.619 1031.45 202.322C1099.34 219.024 1307.68 302.539 1444.41 412.963C1461.15 422.242 1463.94 438.017 1427.67 438.945C1391.39 439.873 1350.47 438.017 1322.57 412.963C1294.66 387.909 1192.48 297.267 1090.04 262.638C1024.09 240.341 1029.21 236.242 914.256 232.944C799.305 229.647 733.632 234.059 621.276 245.935C480.832 260.781 284.583 293.258 242.729 309.962C200.874 326.665 187.853 336.872 187.853 349.864C186.923 353.885 192.238 367.494 207.385 384.197C225.057 403.683 231.567 423.17 237.148 459.359C242.729 512.87 249.239 634.367 230.637 692.27C218.546 734.955 200.874 742.376 200.874 759.08C200.874 775.784 209.245 784.135 222.266 793.414L222.755 793.762C236.379 803.46 280.071 834.559 215.756 860.225C150.649 886.207 154.37 880.64 141.348 890.847C128.327 901.054 122.747 914.044 122.747 927.037C122.747 940.028 128.557 953.945 141.578 964.153C154.599 974.36 150.879 968.792 215.986 994.774C280.301 1020.44 236.609 1051.54 222.985 1061.24L222.496 1061.59C209.475 1070.86 201.104 1079.22 201.104 1095.92C201.104 1112.62 218.776 1120.05 230.867 1162.73C249.469 1220.63 242.958 1342.13 237.378 1395.64C231.797 1431.83 225.287 1451.32 207.615 1470.8C192.467 1487.51 187.153 1501.12 188.083 1505.14C188.083 1518.13 201.104 1528.33 242.958 1545.04C284.813 1561.74 472.289 1594.44 621.506 1609.06C735.488 1620.23 801.518 1622.06 914.485 1622.06C984.107 1622.06 1024.32 1614.66 1090.27 1592.36C1192.71 1557.73 1294.89 1467.09 1322.8 1442.04C1350.7 1416.98 1391.62 1415.13 1427.9 1416.06C1464.17 1416.98 1461.38 1432.76 1444.64 1442.04C1307.91 1552.46 1099.57 1635.98 1031.68 1652.68C963.78 1669.38 795.433 1658.25 653.129 1652.68C510.825 1647.11 238.308 1601.64 201.104 1594.22C163.9 1586.8 159.25 1569.16 146.228 1545.04C79.2617 1424.78 60.6599 1195.52 59.7297 1095.92L59.7297 927.036ZM108.795 796.198C108.795 773.186 111.895 658.555 113.446 604.117C117.163 463.071 157.16 394.404 170.181 395.332C183.203 396.26 195.294 415.747 204.595 461.215C213.896 506.684 209.245 591.126 204.595 661.648C199.968 731.808 164.964 776.253 144.456 802.291L144.139 802.694C123.677 828.676 108.795 824.964 108.795 796.198ZM109.025 1058.8C109.025 1081.81 112.125 1196.44 113.675 1250.88C117.393 1391.93 157.39 1460.59 170.411 1459.67C183.432 1458.74 195.523 1439.25 204.824 1393.78C214.125 1348.31 209.475 1263.87 204.824 1193.35C200.198 1123.19 165.194 1078.75 144.686 1052.71L144.368 1052.3C123.906 1026.32 109.025 1030.03 109.025 1058.8Z" fill="#505050"/>
</g>
<g filter="url(#filter1_d_3787_6931)">
<line x1="1466.5" y1="462" x2="1466.5" y2="93" stroke="#BDBDBD" stroke-width="15"/>
<line x1="169.5" y1="462" x2="169.5" y2="93" stroke="#BDBDBD" stroke-width="15"/>
<path d="M1457 139L1382 95.6987V182.301L1457 139ZM180 139L255 182.301V95.6987L180 139ZM1389.5 131.5L247.5 131.5V146.5L1389.5 146.5V131.5Z" fill="#BDBDBD"/>
</g>
<defs>
<filter id="filter0_d_3787_6931" x="55.5" y="193.5" width="1405" height="1476" filterUnits="userSpaceOnUse" color-interpolation-filters="sRGB">
<feFlood flood-opacity="0" result="BackgroundImageFix"/>
<feColorMatrix in="SourceAlpha" type="matrix" values="0 0 0 0 0 0 0 0 0 0 0 0 0 0 0 0 0 0 127 0" result="hardAlpha"/>
<feOffset dy="4"/>
<feGaussianBlur stdDeviation="2"/>
<feComposite in2="hardAlpha" operator="out"/>
<feColorMatrix type="matrix" values="0 0 0 0 0 0 0 0 0 0 0 0 0 0 0 0 0 0 0.25 0"/>
<feBlend mode="normal" in2="BackgroundImageFix" result="effect1_dropShadow_3787_6931"/>
<feBlend mode="normal" in="SourceGraphic" in2="effect1_dropShadow_3787_6931" result="shape"/>
</filter>
<filter id="filter1_d_3787_6931" x="158" y="93" width="1320" height="377" filterUnits="userSpaceOnUse" color-interpolation-filters="sRGB">
<feFlood flood-opacity="0" result="BackgroundImageFix"/>
<feColorMatrix in="SourceAlpha" type="matrix" values="0 0 0 0 0 0 0 0 0 0 0 0 0 0 0 0 0 0 127 0" result="hardAlpha"/>
<feOffset dy="4"/>
<feGaussianBlur stdDeviation="2"/>
<feComposite in2="hardAlpha" operator="out"/>
<feColorMatrix type="matrix" values="0 0 0 0 0 0 0 0 0 0 0 0 0 0 0 0 0 0 0.25 0"/>
<feBlend mode="normal" in2="BackgroundImageFix" result="effect1_dropShadow_3787_6931"/>
<feBlend mode="normal" in="SourceGraphic" in2="effect1_dropShadow_3787_6931" result="shape"/>
</filter>
</defs>
</svg>
