<svg width="2042" height="379" viewBox="0 0 2042 379" fill="none" xmlns="http://www.w3.org/2000/svg">
<path d="M16.988 3.92249C22.581 1.6725 36.7966 0.406873 43.2053 0.0553112C67.3252 -1.26767 85.5025 21.5009 94.9407 29.9381C99.5438 34.053 105.428 36.9693 110.671 36.9693L1128.95 36.9693C1360.71 36.9693 1407.2 99.5473 1438.31 113.61C1469.43 127.672 1588.63 202.555 1671.47 249.664C1754.32 296.774 1702.58 314.352 1683.01 323.844C1629.53 349.859 1609.95 322.438 1584.43 293.961C1496.69 192.711 1368.4 124.508 1335.54 113.61C1302.68 102.711 1240.46 98.1411 1216.69 99.5473C1192.92 100.954 137.587 119.938 123.605 120.641C109.622 121.344 109.972 126.969 110.671 132.243C127.101 272.164 132.694 311.188 118.361 335.094C108.877 350.914 98.4363 359 88.6486 359C59.9758 359 50.1965 330.172 43.2053 307.32C36.214 284.469 5.4524 86.8911 0.908072 48.9224C-3.63626 10.9537 9.99673 6.73499 16.988 3.92249Z" fill="#505050"/>
<path d="M1325 18.5C1320.86 18.5 1317.5 21.8579 1317.5 26C1317.5 30.1421 1320.86 33.5 1325 33.5V18.5ZM2042 18.5L1325 18.5V33.5L2042 33.5V18.5Z" fill="#BDBDBD"/>
<path d="M1896.17 332.062L1967.76 283.331L1889.76 245.696L1896.17 332.062ZM1973.46 33L1926.01 105.447L2012.48 110.316L1973.46 33ZM1932.43 274.149C1955.47 218.928 1970.52 160.698 1977.12 101.228L1962.21 99.5734C1955.77 157.626 1941.08 214.468 1918.59 268.374L1932.43 274.149Z" fill="#BDBDBD"/>
<path d="M1328.61 19.4286C1324.99 17.4322 1320.42 18.7559 1318.43 22.3852C1316.43 26.0145 1317.76 30.575 1321.39 32.5714L1328.61 19.4286ZM1957.61 365.429L1328.61 19.4286L1321.39 32.5714L1950.39 378.571L1957.61 365.429Z" fill="#BDBDBD"/>
</svg>
